<?xml version="1.0" encoding="utf-8" ?>
<svg xmlns="http://www.w3.org/2000/svg" xmlns:xlink="http://www.w3.org/1999/xlink" width="1024" height="1024">
	<path fill="white" transform="scale(2 2)" d="M322.775 136.527C320.209 137.05 317.578 136.134 316.496 133.588C315.247 130.646 313.481 110.837 319.842 107.792C322.329 107.621 324.721 108.085 326.041 110.49C326.973 112.188 330.177 133.843 322.775 136.527Z"/>
	<path fill="white" transform="scale(2 2)" d="M270.036 151.213C263.778 153.212 256.923 138.331 254.551 133.568C252.542 129.532 253.407 127.061 257.543 125.299C264.004 124.963 272.539 140.597 274.018 144.855C275.138 148.08 272.966 150.378 270.036 151.213Z"/>
	<path fill="white" transform="scale(2 2)" d="M376.178 152.238C360.226 154.626 377.407 128.778 382.221 126.538C399.115 124.902 379.362 150.869 376.178 152.238Z"/>
	<path fill="white" transform="scale(2 2)" d="M259.006 178.472C275.322 161.982 289.749 154.219 313.573 151.213C373.049 147.527 418.861 201.361 401.922 259.665C400.735 263.754 399.145 267.646 397.503 271.567C467.552 291.868 459.731 382.383 396.517 395.022C387.602 396.804 378.111 396.212 369.054 396.213L195.277 396.207L162.234 396.217C155.813 396.217 149.286 396.46 142.881 395.997C103.08 393.122 69.2986 361.676 63.8524 321.998C58.0397 279.649 88.2074 232.139 131.412 226.181C150.619 180.916 198.336 157.243 245.658 172.822C250.263 174.337 254.618 176.435 259.006 178.472ZM316.88 161.747C298.751 163.815 280.999 170.015 268.518 184.06C270.913 185.701 273.446 187.359 275.561 189.352C312.343 155.465 371.319 170.663 383.405 219.375C385.401 228.948 385.967 238.856 384.085 248.505C383.49 251.55 381.804 255.354 381.736 258.328C381.715 259.229 383.571 270.473 383.64 270.581C385.384 273.302 388.443 265.5 388.744 264.792C409.792 215.333 371.433 158.341 316.88 161.747ZM212.549 179.275C186.109 179.958 159.318 196.356 146.605 219.694C136.012 239.142 146.269 233.332 127.756 238.31C54.3311 258.053 56.6525 367.944 134.558 384.025C143.875 385.948 153.542 385.468 163.006 385.466L310.267 385.459L359.853 385.471C370.718 385.471 387.339 386.411 397.31 383.869C419.949 378.097 436.703 356.78 436.617 333.358C436.514 305.397 411.798 280.172 383.559 280.495C370.921 280.64 372.659 280.196 372.456 269.075C371.857 236.35 331.862 215.711 305.319 234.658C301.222 237.582 298.467 241.293 293.351 237.824C291.711 235.07 291.086 231.89 290.049 228.892C280.024 199.906 243.432 174.707 212.549 179.275ZM316.88 181.759C303.155 183.384 293.625 187.696 283.216 196.757C290.416 205.662 296.424 214.429 300.318 225.283C314.742 214.611 336.438 214.769 352.347 222.176C361.63 226.984 368.57 233.163 374.739 241.573C374.751 237.438 374.882 233.257 374.43 229.142C371.432 201.818 344.356 178.496 316.88 181.759Z"/>
	<path fill="white" transform="scale(2 2)" d="M410.256 189.352C406.305 189.593 402.51 185.192 404.513 181.43C405.69 179.219 422.343 171.202 425.417 170.305C429.368 170.179 433.046 173.099 431.277 177.433C430.053 180.431 413.926 187.72 410.256 189.352Z"/>
	<path fill="white" transform="scale(2 2)" d="M443.05 241.573L430.185 241.577C427.266 241.592 423.882 242.29 421.243 240.674C415.949 237.432 419.105 231.546 424.337 230.829C428.706 230.714 443.945 229.965 447.046 232.48C451 235.686 447.937 241.217 443.05 241.573Z"/>
	<path fill="white" transform="scale(2 2)" d="M111.539 299.375C110.773 303.09 111.051 311.786 109.035 314.247C105.883 318.096 99.9075 315.618 99.7145 309.273C98.8807 281.869 121.481 256.208 149.169 255.288C160.139 252.596 182.346 261.784 171.251 268.708C168.403 270.485 163.615 267.686 160.638 266.955C137.903 261.371 116.875 277.659 111.539 299.375Z"/>
	<path fill="white" transform="scale(2 2)" d="M325.92 348.603C330.41 349.826 334.567 352.776 339.245 354.171C362.525 361.115 389.57 345.042 391.242 319.966C391.594 314.69 389.172 309.267 395.007 306.52C401.771 305.87 402.18 311.836 402.073 317.185C401.317 354.731 359.278 378.782 326.788 360.477C320.48 357.536 317.234 351.524 325.92 348.603Z"/>
</svg>
