<?xml version="1.0" encoding="utf-8" ?>
<svg xmlns="http://www.w3.org/2000/svg" xmlns:xlink="http://www.w3.org/1999/xlink" width="1024" height="1024">
	<path fill="white" transform="scale(2 2)" d="M314.368 164.517C321.339 149.697 337.598 140.644 353.424 139.061C372.288 136.9 392.775 149.212 400.14 166.532C416.203 166.102 429.095 177.845 432.58 193.17C436.4 193.146 440.361 193.074 444.118 193.832C476.377 200.337 475.262 249.009 443.567 252.549C436.359 253.354 428.706 252.855 421.441 252.856L360.542 252.878C356.419 252.894 351.371 253.471 347.399 252.495C342.838 251.374 343.154 243.91 347.549 242.622C350.189 241.849 361.276 242.374 364.819 242.371L430.918 242.372C436.155 242.372 442.231 242.98 447.103 240.664C466.063 231.65 457.311 203.747 437.545 203.534C421.016 203.357 426.841 202.656 420.796 190.058C412.247 172.242 396.657 178.673 393.711 176.137C392.057 174.714 390.836 171.306 389.813 169.38C375.823 143.041 337.607 142.703 324.007 168.622C317.824 180.404 320.605 174.308 308.327 174.759C300.283 175.055 292.474 180.669 289.998 188.379C285.843 201.317 289.617 194.458 278.872 199.327L278.917 199.731C279.748 207.517 283.723 212.516 283.786 222.979C294.003 227.434 303.569 239.446 308.817 248.984C326.842 244.979 343.702 254.15 349.926 271.662C353.59 271.646 357.403 271.484 361.033 271.982C393.158 276.39 402.291 315.776 377.129 334.853C366.069 342.115 354.855 341.119 342.134 341.121L311.823 341.114C311.095 356.4 300.285 370.297 284.62 372.11C279.794 372.669 274.792 372.509 269.94 372.51L111.435 372.529C98.9194 372.535 89.4817 371.58 80.9676 360.559C63.5441 338.004 82.0009 305.945 112.357 310.5C112.902 307.396 113.807 304.656 114.97 301.729L91.014 301.745C76.9026 301.75 65.697 302.518 54.6659 291.998C31.8369 270.228 46.5956 230.937 79.6605 230.429C81.4106 198.826 120.442 185.626 137.011 207.584C144.95 200.831 157.964 198.813 167.327 203.507C175.269 178.97 202.118 163.875 227.111 165.361C247.551 166.577 259.796 175.668 272.889 190.302C274.847 189.368 276.756 188.83 278.872 188.389C284.77 171.351 295.974 163.624 314.368 164.517ZM219.128 175.847C201.251 177.75 184.852 188.287 177.534 204.932C172.75 215.811 174.423 215.282 162.182 212.102C151.078 209.218 139.53 214.896 134.65 225.115C131.123 232.501 131.977 235.332 123.093 234.451C104.621 232.621 103.897 244.244 97.6782 245.255C94.1088 245.835 90.9679 243.004 87.7493 241.925C60.7536 232.876 41.6863 268.085 63.3085 285.877C70.5595 291.844 79.1025 291.437 87.9494 291.434L103.115 291.424C109.244 291.423 115.396 291.306 121.523 291.424C128.772 284.571 138.495 280.624 148.482 282.204C154.233 269.481 161.842 261.001 175.153 255.936C184.563 252.356 189.227 253.854 198.258 252.853C208.486 222.264 243.006 209.414 272.889 217.734C269.811 193.577 243.388 171.834 219.128 175.847ZM110.532 207.584C97.7441 209.437 90.8527 219.551 89.8146 231.732L95.5094 233.979C97.8036 231.506 100.13 229.365 103.115 227.748C110.032 224.404 116.422 222.669 124.11 223.929C125.417 220.348 127.085 217.281 129.219 214.131C124.051 209.488 117.589 206.536 110.532 207.584ZM250.886 225.27C232.625 227.093 214.471 238.318 208.209 256.196C219.204 260.796 228.228 269.069 233.049 280.013C253.293 249.533 298.062 271.974 286.286 306.447C298.793 310.7 306.617 318.286 310.926 330.543L325.346 330.543L345.762 330.552C356.679 330.551 366.219 331.746 374.532 323.383C383.944 313.915 383.716 298.462 374.169 289.16C362.787 278.071 346.782 284.709 343.064 281.165C340.774 278.982 340.135 275.301 338.886 272.51C334.461 262.615 323.374 256.435 312.668 258.921C298.605 262.187 303.019 259.586 295.953 248.161C286.075 232.187 269.055 224.869 250.886 225.27ZM189.285 263.783C159.886 264.634 160.852 290.792 152.461 293.272C121.225 286.257 125.136 315.695 118.345 320.254C114.768 322.656 108.412 320.213 104.282 320.384C80.6521 321.362 77.8111 356.346 101.053 361.536C105.473 362.523 110.221 362.088 114.723 362.053L196.989 362.043L271.438 362.055C280.734 362.063 288.26 362.452 295.298 355.344C304.187 346.366 303.459 331.024 294.474 322.396C285.941 314.201 277.587 315.185 266.719 315.303C255.797 315.421 258.817 310.407 256.591 303.016C251.028 284.545 230.614 295.831 227.121 292.352C224.862 290.101 224.376 285.907 223.063 283.043C217.657 271.258 202.527 261.595 189.285 263.783ZM255.894 276.324C251.194 277.056 247.829 278.763 244.512 282.204C256.276 283.285 266.978 292.802 267.31 305.032L275.73 305.032C281.863 290.065 272.229 274.058 255.894 276.324Z"/>
</svg>
