<?xml version="1.0" encoding="utf-8" ?>
<svg xmlns="http://www.w3.org/2000/svg" xmlns:xlink="http://www.w3.org/1999/xlink" width="1024" height="1024">
	<path fill="white" transform="scale(2 2)" d="M257.84 138.76C255.848 139.291 253.191 138.763 252.116 136.826C250.118 133.228 250.911 79.9317 251.671 77.7643C252.245 76.1251 253.56 75.4971 255.006 74.7643C257.395 74.5678 260.486 75.3963 261.407 77.8965C261.899 79.232 262.062 128.966 261.795 133.882C261.646 136.638 260.419 137.835 257.84 138.76Z"/>
	<path fill="white" transform="scale(2 2)" d="M213.333 146.213C203.349 146.668 194.519 107.428 197.156 102.428C197.973 100.88 199.343 100.302 200.927 99.7681C206.251 100.513 206.68 104.545 207.361 109.208C208.446 116.649 210.559 123.752 213.586 130.638C215.829 135.741 221.822 143.694 213.333 146.213Z"/>
	<path fill="white" transform="scale(2 2)" d="M304.426 147.498C285.95 148.503 315.416 115.303 324.343 112.035C328.009 111.939 331.985 114.993 330.131 119.021C329.052 121.365 316.293 132.148 312.384 138.139C310.209 141.473 308.477 146.102 304.426 147.498Z"/>
	<path fill="white" transform="scale(2 2)" d="M171.745 175.903C166.749 176.433 163.668 171.274 160.548 168.087L134.964 142.159C132.513 139.712 117.374 126.484 129.342 125.268C134.193 124.098 139.939 132.373 143.373 135.872L154.264 146.755C160.306 152.84 166.708 158.736 172.521 165.028C176.307 169.127 178.081 173.486 171.745 175.903Z"/>
	<path fill="white" transform="scale(2 2)" d="M342.74 175.903C338.696 175.484 334.832 172.216 336.974 167.801C338.959 163.709 351.872 152.764 355.717 148.935L369.968 134.944C373.174 131.767 376.688 126.722 381.127 125.268C385.949 125.318 389.212 129.82 385.77 133.992C383.707 136.492 381.214 138.692 378.883 140.942L351.994 166.992C348.925 169.932 346.005 173.19 342.74 175.903Z"/>
	<path fill="white" transform="scale(2 2)" d="M261.757 362.506C232.113 363.189 205.738 354.582 183.352 334.737C139.725 296.065 137.097 227.174 175.852 184.141C195.31 162.535 222.43 150.123 251.244 148.552C310.759 147.771 359.151 189.082 363.273 249.634C367.328 309.2 320.381 358.513 261.757 362.506ZM254.033 159.211C200.686 159.836 158.132 204.886 158.926 257.894C159.708 310.072 204.267 352.797 256.385 351.871C256.872 351.862 257.355 351.844 257.84 351.802C342.653 350.569 386.361 246.601 322.09 184.908C305.372 168.86 277.455 157.157 254.033 159.211Z"/>
	<path fill="white" transform="scale(2 2)" d="M195.004 279.65C183.698 289.204 181.785 261.462 181.72 256.006C181.261 217.4 213.205 182.172 252.442 181.775C257.972 181.017 266.957 182.872 262.423 189.961C260.243 193.37 255.611 192.32 252.191 192.522C214.22 194.768 182.048 233.851 194.702 270.63C195.907 274.132 197.401 276.214 195.004 279.65Z"/>
	<path fill="white" transform="scale(2 2)" d="M143.177 214.58C137.941 214.717 93.937 193.081 111.055 185.772C115.914 185.618 124.191 193.638 128.821 196.625C133.757 199.808 149.397 205.039 147.148 210.841C146.407 212.752 145.01 213.82 143.177 214.58Z"/>
	<path fill="white" transform="scale(2 2)" d="M373.405 214.58C368.589 215.366 364.719 210.079 368.295 206.11C371.832 202.182 400.381 197.016 405.534 196.605C412.404 195.969 414.403 204.772 407.644 206.798C403.553 208.025 395.987 208.274 391.054 209.308C385.031 210.57 379.337 212.994 373.405 214.58Z"/>
	<path fill="white" transform="scale(2 2)" d="M319.673 249.541C320.806 248.004 321.826 247.299 323.534 246.536C328.663 246.222 330.408 249.407 330.33 254.151C329.659 295.348 297.113 330.57 255.006 329.784C247.929 329.629 245.649 321.083 252.824 319.531C255.945 318.856 260.757 319.084 264.29 318.587C299.53 313.635 319.873 284.127 319.673 249.541Z"/>
	<path fill="white" transform="scale(2 2)" d="M135.832 262.623C125.802 263.447 80.089 262.936 75.9151 261.423C70.9398 259.619 72.0523 253.017 76.4895 251.414C83.48 250.902 93.4678 251.997 100.783 252.124C107.586 252.243 132.393 250.872 137.162 252.728C141.633 254.468 140.324 261.067 135.832 262.623Z"/>
	<path fill="white" transform="scale(2 2)" d="M426.813 262.623C415.074 261.705 403.119 262.032 391.347 261.946C387.414 261.918 372.247 263.911 372.3 257.223C372.356 250.272 380.708 251.409 385.441 251.414C396.877 251.408 407.588 251.874 418.832 252.096C423.323 252.184 437.955 249.503 438.762 256.289C439.612 263.428 431.493 262.285 426.813 262.623Z"/>
	<path fill="white" transform="scale(2 2)" d="M106.684 314.723C98.3348 315.085 97.7837 306.248 103.177 304.918C105.316 304.39 107.686 304.265 109.873 303.953C120.038 302.498 130.445 298.377 139.517 297.258C143.747 296.073 148.126 300.712 145.173 304.558C141.508 309.333 113.64 313.924 106.684 314.723Z"/>
	<path fill="white" transform="scale(2 2)" d="M401.877 328.399C396.748 329.235 390.809 321.447 386.972 318.393C384.126 316.128 366.794 305.498 366.649 305.231C364.863 301.954 366.351 298.872 369.503 297.258C378.519 296.79 392.112 308.923 398.694 314.516C403.417 318.529 410.415 323.905 401.877 328.399Z"/>
	<path fill="white" transform="scale(2 2)" d="M131.446 387.149C127.659 386.885 122.638 383.523 124.988 379.198C126.928 375.627 165.86 337.649 171.745 335.775C176.373 334.184 179.653 340.189 176.352 343.62C168.949 351.316 160.882 358.402 153.299 365.926L139.064 380.027C136.617 382.419 134.197 385.13 131.446 387.149Z"/>
	<path fill="white" transform="scale(2 2)" d="M383.886 387.149C381.814 387.465 380.152 386.793 378.586 385.411C367.423 375.559 356.7 363.011 345.732 352.456C342.002 348.866 329.487 339.954 339.52 335.775C340.629 335.682 341.78 335.565 342.859 335.914C345.354 336.721 386.346 377.33 387.382 379.826C388.755 383.135 386.875 385.736 383.886 387.149Z"/>
	<path fill="white" transform="scale(2 2)" d="M187.894 400.739C172.843 400.436 191.412 382.268 193.948 379.182C197.299 375.106 203.759 364.823 208.819 363.549C212.733 363.701 216.344 366.907 213.995 371.034C210.993 376.309 191.634 399.587 187.894 400.739Z"/>
	<path fill="white" transform="scale(2 2)" d="M311.041 411.367C305.79 412.012 304.869 407.918 304.146 403.599C302.822 395.681 301.041 388.475 297.864 381.067C295.805 376.266 288.905 367.449 297.596 365.04C307.024 365.113 313.389 394.036 314.602 400.994C315.441 405.809 316.312 409.28 311.041 411.367Z"/>
	<path fill="white" transform="scale(2 2)" d="M257.84 438.302C252.59 439.356 251.45 436.032 251.28 431.807C250.607 415.082 250.539 393.53 251.225 376.765C251.34 373.974 252.417 372.659 255.006 371.548C257.345 371.357 259.89 371.77 261.109 374.066C262.795 377.241 261.96 433.863 261.376 435.324C260.739 436.92 259.353 437.682 257.84 438.302Z"/>
</svg>
