<?xml version="1.0" encoding="utf-8" ?>
<svg xmlns="http://www.w3.org/2000/svg" xmlns:xlink="http://www.w3.org/1999/xlink" width="1024" height="1024">
	<path transform="scale(2 2)" d="M327.374 139.926C325.098 140.442 321.766 139.615 320.772 137.258C319.757 134.852 319.845 110.182 320.805 107.876C321.385 106.48 322.744 105.864 324.043 105.3C326.604 105.113 329.236 105.521 330.591 108.024C331.515 109.731 334.398 136.361 327.374 139.926Z"/>
	<path transform="scale(2 2)" d="M276.718 153.701C275.355 153.8 274.028 153.922 272.746 153.323C272.486 153.201 249.187 127.996 261.784 123.553C263.501 123.519 265.368 123.63 266.652 124.927C269.124 127.425 277.884 141.512 279.897 145.229C281.937 148.996 280.461 151.906 276.718 153.701Z"/>
	<path transform="scale(2 2)" d="M378.859 153.701C364.477 155.205 376.399 138.348 378.876 134.065C381.09 130.236 382.363 125.328 386.754 123.553C404.921 121.501 382.203 152.207 378.859 153.701Z"/>
	<path transform="scale(2 2)" d="M256.142 198.947C268.175 173.241 293.029 159.504 320.202 156.239C324.893 156.152 329.652 156.059 334.327 156.483C378.058 160.453 409.737 201.306 405.456 244.405C402.837 270.768 391.765 284.695 372.74 300.253C415.21 301.782 438.95 356.239 407.237 387.927C389.825 405.326 375.717 402.911 353.434 402.944L250.75 404.69C226.055 405.103 201.385 405.082 176.689 404.991C157.909 405.216 136.901 405.218 118.099 404.158C57.3811 400.733 30.6535 327.343 73.2245 289.571C71.1644 236.744 123.229 201.833 172.509 221.477C192.595 195.233 225.998 188.658 256.142 198.947ZM322.81 167.716C298.914 168.274 277.003 182.805 266.289 203.966C283.251 214.83 295.805 229.518 301.178 249.239C323.411 247.851 344.651 254.275 356.289 274.256C360.031 280.293 361.623 285.672 364.443 291.942C394.855 273.569 403.354 231.093 385.148 201.262C372.592 180.69 347.433 164.945 322.81 167.716ZM228.174 205.369C202.182 206.807 178.405 222.932 170.43 248.112C166.179 261.534 166.76 263.006 155.016 254.724C138.492 243.069 116.827 253.724 111.605 272.595C119.711 272.724 128.439 274.344 134.364 280.436C136.849 282.99 136.846 287.407 133.921 289.64C129.269 293.191 124.692 286.948 120.995 284.996C112.339 280.425 95.8746 286.539 88.3961 291.582C63.9969 308.036 55.8208 342.768 72.8351 367.472C90.5809 393.238 111.073 392.298 137.919 393.358C152.145 393.92 166.285 393.802 180.526 393.802L236.563 393.799C242.5 393.806 248.475 393.939 254.408 393.776L274.899 393.171C282.338 392.926 289.625 392.477 297.089 392.475L350.318 392.469C358.468 392.47 372.434 393.215 379.988 391.655C397.418 388.055 410.356 368.686 410.321 351.567C410.255 319.886 373.405 300.41 349.267 318.154C343.626 322.301 336.093 326.501 336.106 315.516C339.211 309.223 348.29 304.994 354.846 303.206C350.235 277.368 333.929 258.132 306.139 260.33C292.175 261.433 293.579 264.379 289.343 250.123C281.535 223.85 255.94 204.202 228.174 205.369ZM139.53 226.785C108.831 230.454 89.614 251.436 84.376 280.876C89.5368 278.167 94.5215 275.781 100.179 274.256C100.646 271.662 101.163 269.134 101.883 266.595C110.394 242.307 136.958 231.515 159.77 244.513C161.392 239.835 163.322 235.526 165.86 231.259C157.622 227.977 148.462 225.829 139.53 226.785Z"/>
	<path transform="scale(2 2)" d="M413.517 189.817C409.389 189.098 405.761 184.973 408.654 180.851C410.551 178.148 430.72 167.762 436.031 166.823C441.358 167.938 442.709 174.184 438.307 177.139C434.743 179.532 416.905 188.97 413.517 189.817Z"/>
	<path transform="scale(2 2)" d="M238.674 189.817C233.591 190.272 229.421 186.451 225.241 184.053C220.565 181.372 208.398 177.409 212.111 169.939C212.763 168.628 213.925 168.159 215.238 167.716C221.042 166.555 240.425 178.955 241.981 181.665C243.829 184.884 241.52 188.217 238.674 189.817Z"/>
	<path transform="scale(2 2)" d="M454.142 237.731C447.084 237.854 434.654 238.377 427.909 237.481C421.265 236.599 422.011 227.272 428.382 226.415C433.417 225.962 448.455 225.916 453.557 226.468C460.976 227.271 461.156 236.314 454.142 237.731Z"/>
	<path transform="scale(2 2)" d="M436.031 298.311C431.607 299.011 424.257 294.168 420.337 292.307C414.654 289.608 400.793 283.137 413.517 277.782C417.502 277.14 434.938 286.062 438.126 288.465C442.233 291.56 439.981 296.59 436.031 298.311Z"/>
</svg>
