<?xml version="1.0" encoding="utf-8" ?>
<svg xmlns="http://www.w3.org/2000/svg" xmlns:xlink="http://www.w3.org/1999/xlink" width="1024" height="1024">
	<path d="M475.876 252.118C514.838 202.038 549.772 178.065 615.336 170.467C714.83 168.561 801.99 230.24 814.302 333.11C864.868 328.648 906.47 376.894 906.618 424.996C906.764 472.216 868.888 513.748 821.988 518.246C813.474 519.062 804.758 518.73 796.21 518.73L759.61 518.706C757.264 564.148 723.4 603.27 679.002 612.502C664.334 615.552 648.814 614.56 633.898 614.554L371.548 614.54C330.72 614.552 289.798 615.072 248.98 614.514C212.592 614.016 179.18 600.228 153.808 573.898C75.6228 492.758 132.856 350.55 241.596 352.444C240.422 280.336 297.908 220.052 369.13 213.9C411.014 210.284 444.968 225.94 475.876 252.118ZM617.37 194.467C565.676 200.894 520.364 223.946 493.076 270.53C498.944 279.622 504.14 288.758 508.55 298.65C544.206 280.55 590.002 293.21 608.208 329.694C610.894 335.076 613.05 340.788 615.336 346.35C640.52 351.214 656.434 357.718 671.338 379.994C681.13 394.628 679.722 402.24 685.136 415.944C715.386 430.17 732.632 435.064 749.686 469.556C752.962 476.18 754.906 483.382 758.198 489.996L758.198 494.632L795.332 494.666C822.676 494.676 841.414 494.658 862.218 473.858C905.36 430.728 876.11 355.54 816.642 356.778C790.886 357.314 793.758 358.386 790.352 333.276C778.42 245.3 702.934 192.928 617.37 194.467ZM371.548 237.524C312.732 244.878 268.584 286.718 264.94 346.778C262.812 381.85 258.414 371.56 230.618 376.084C108.732 395.922 113.874 571.756 232.21 589.474C247.52 591.766 263.624 590.862 279.074 590.854L595.75 590.83L637.724 590.866C667.418 590.876 689.644 590.996 712.206 568.372C776.05 504.354 697.124 405.752 624.96 445.924C616.806 450.464 598.954 459.516 599.31 440.152C599.65 421.538 645.886 413.142 659.292 414.156C654.55 393.102 640.222 374.25 617.714 371.628C590.772 368.488 597.376 376.116 590.528 350.412C582.636 320.796 548.292 304.24 520.816 319.752C486.878 338.914 497.132 325.528 481.466 297.436C460.308 259.492 415.646 232.88 371.548 237.524Z"/>
	<path d="M263.222 735.898C240.694 735.902 253.64 710.372 257.028 698.792C260.432 687.156 261.034 668.706 273.908 665.568C281.212 666.042 284.75 669.178 287.332 676.094C286.524 686.674 277.266 733.032 263.222 735.898Z"/>
	<path d="M348.896 735.898C323.976 739.702 340.052 702.906 343.228 692.148C346.362 681.532 345.902 670.592 357.148 666.564C381.484 662.902 367.3 693.95 364.206 704.784C361.086 715.712 360.458 730.828 348.896 735.898Z"/>
	<path d="M431.458 734.518C406.578 737.848 420.628 706.222 423.894 695.18C426.682 685.756 427.684 671.166 437.47 666.564C445.644 665.792 453.556 668.526 452.632 677.92C451.634 688.04 442.27 729.02 431.458 734.518Z"/>
	<path d="M515.902 734.518C492.714 737.76 503.772 711.986 506.776 701.6C509.838 691.006 511.748 670.872 523.138 666.564C531.114 666.282 535.286 668.42 538.43 676.094C537.182 686.888 527.84 730.014 515.902 734.518Z"/>
	<path d="M600.21 734.518C576.436 739.262 589.398 710.466 591.93 701.516C595.352 689.426 596.004 670.998 608.244 666.564C615.006 666.086 623.764 669.212 622.894 677.682C621.856 687.812 612.176 729.854 600.21 734.518Z"/>
	<path d="M685.136 732.684C678.266 734.158 669.938 730.182 670.096 722.254C670.27 713.524 681.284 671.84 691.006 666.564C697.378 666.406 706.52 670.084 706.462 677.68C706.398 685.856 695.792 727.676 685.136 732.684Z"/>
	<path d="M228.326 851.46C205.01 852.032 218.494 823.708 221.824 811.978C224.784 801.554 224.75 788.208 236.158 784.108C258.82 780.136 246.48 809.232 243.928 819.238C240.888 831.16 241.308 846.31 228.326 851.46Z"/>
	<path d="M313.826 851.46C288.226 854.834 304.358 819.856 307.484 808.834C310.144 799.454 310.112 787.524 320.7 784.108C342.68 782.54 333.636 803.898 330.352 815.896C327.16 827.562 325.984 845.942 313.826 851.46Z"/>
	<path d="M398.216 851.46C375.838 852.942 386.858 827.852 390.018 816.234C392.92 805.57 393.394 790.604 404.662 785.556C411.516 784.982 419.208 789.51 418.408 797.09C417.286 807.714 409.878 847.084 398.216 851.46Z"/>
	<path d="M482.622 851.46C472.826 852.916 467.37 847.122 468.43 837.884C469.77 826.204 475.818 790.858 488.12 785.556C511.204 784.038 499.834 809.044 496.594 821.02C493.986 830.658 493.21 847.242 482.622 851.46Z"/>
	<path d="M566.37 851.46C557.882 851.796 551.364 848.426 552.386 838.564C553.534 827.494 561.182 791.338 573.23 785.556C582.608 786.532 588.388 791.686 586.878 801.06C585.064 812.334 578.506 846.758 566.37 851.46Z"/>
	<path d="M649.15 851.46C642.944 851.648 636.02 847.358 636.64 840.344C637.13 834.786 647.104 798.17 649.372 793.666C651.248 789.938 655.63 788.696 659.292 787.564C683.908 786.164 660.15 844.442 657.954 847.246C655.578 850.282 652.8 850.916 649.15 851.46Z"/>
</svg>
