<?xml version="1.0" encoding="utf-8" ?>
<svg xmlns="http://www.w3.org/2000/svg" xmlns:xlink="http://www.w3.org/1999/xlink" width="1024" height="1024">
	<path d="M398.758 211.504C434.428 167.068 499.232 140.781 555.306 139.987C639.466 133.297 726.252 196.753 755.154 274.492C758.458 283.38 761.504 292.612 762.864 302.016C780.398 301.168 797.812 306.53 813.364 314.214C932.702 373.168 898.178 549.164 768.77 560.268C754.326 561.508 739.73 561.144 725.246 561.136L623.588 561.162C588.508 561.288 555.538 558.274 542.922 517.01C539.616 506.2 539.48 482.276 555.77 492.234C565.07 497.92 559.096 535.846 598.774 540.338C605.518 541.1 612.628 540.604 619.418 540.592L722.232 540.57C742.166 540.58 763.602 542.204 783.048 537.398C840.478 523.204 878.264 462.934 863.202 405.094C842.202 324.448 740.914 292.672 682.5 352.692C678.268 357.04 674.718 363.676 668.37 365.136C656.418 367.884 653.402 354.204 660.42 345.22C679.324 321.018 711.952 305.786 741.804 302.016C733.86 267.998 717.456 241.922 693.878 216.664C590.408 109.58 403.474 164.057 370.6 309.794C369.026 316.776 368.784 328.228 365.348 334.106C357.358 347.768 340.53 329.632 332.682 324.956C279.298 293.158 206.546 310.934 174.839 364.788C147.332 411.51 156.8 472.286 196.84 508.606C253.998 560.456 331.876 531.648 347.996 541.982C356.66 547.534 352.114 559.06 343.172 560.786C332.238 562.896 273 561.546 261.452 560.42C201.822 554.606 150.778 506.908 140.037 448.052C126.894 376.036 174.586 303.514 247.55 290.706C275.444 230.396 334.418 200.8 398.758 211.504ZM366.408 230.02C328.862 230.96 290.272 255.532 272.108 288.584C284.23 288.586 296.07 289.832 307.884 292.618C322.554 296.256 335.31 302.584 348.584 309.596C356.718 275.42 366.792 258.546 383.694 230.02C377.972 229.76 372.108 229.298 366.408 230.02Z"/>
	<path d="M389.512 474.518C390.222 481 389.988 487.152 392.784 493.236C405.128 520.092 447.764 515.986 453.45 486.86C454.916 479.352 453.892 472.874 461.936 469.332L462.514 469.084C479.664 467.768 476.53 487.37 472.29 498.382C454.496 544.59 391.492 543.098 372.76 499.128C370.098 491.862 365.354 479.16 371.872 472.578C377.374 467.024 384.822 469.43 389.512 474.518Z"/>
	<path d="M487.314 624.036C487.604 609.262 480.672 573.372 496.868 570.102C501.968 569.964 504.872 572.024 507.942 576.066L507.942 624.036C516.584 618.214 534.682 601.458 544.292 613.714C553.3 625.204 516.93 643.19 507.942 649.4L507.942 711.026C519.284 701.964 544.692 687.568 558.186 680.576C558.662 674.592 562.912 612.274 581.66 634.304C586.956 640.53 582.438 658.004 581.812 666.224C597.126 659.172 611.728 646.098 627.556 641.032C650.65 648.994 631.762 661.354 620.468 667.862C610.924 673.364 601.358 678.788 591.676 684.044C599.868 688.82 625.99 696.8 618.142 709.892C616.046 713.39 612.366 714.332 608.69 715.274C598.674 712.666 580.922 702.07 570.902 696.854C553.862 707.618 536.166 717.568 518.676 727.58C535.824 738.622 553.684 748.654 570.902 759.636C582.174 754.924 598.054 745.118 608.69 742.218C615.066 743.78 621.484 748.65 619.146 756.006C616.582 764.072 600.894 768.264 593.934 772.12C603.11 777.26 627.882 790.422 635.164 796.762C643.338 803.878 635.256 817.488 625.236 814.058C616.704 811.138 590.86 794.746 581.812 789.274C583.208 796.354 588.984 812.562 585.298 818.734C581.444 825.19 569.598 825.988 566.59 818.374C564.512 813.118 563.948 806.574 562.94 800.99L558.186 775.692C542.532 764.244 524.154 756.124 507.942 745.342C507.4 752.724 507.838 760.122 507.888 767.516L507.942 804.314C519.248 811.284 533.736 820.658 542.25 830.496C547.484 836.546 543.366 846.548 535.496 847.3C527.49 848.064 514.138 834.646 507.942 829.49L508.01 859.196C508.026 866.724 509.776 875.914 504.958 882.304C486.386 895 487.146 869.72 487.242 859.168L487.314 829.49L486.188 830.284C479.442 835.026 473.45 842.214 466.228 845.974C457.704 850.412 448.7 841.52 452.096 832.632C453.84 828.062 479.662 807.684 487.314 804.314L487.314 745.342C470.536 753.46 454.57 765.038 437.73 773.588C436.718 782.83 434.622 825.05 419.812 823.028C403.19 820.76 412.04 799.256 413.798 789.274C402.686 792.454 373.142 816.224 365.56 813.872C355.41 810.726 354.984 800.582 362.674 794.246C368.974 789.054 393.648 774.972 401.24 772.12C394.062 767.198 379.712 764.026 375.93 757.78C372.914 752.798 374.79 745.958 380.036 743.34C387.314 739.712 416.016 754.626 424.752 757.868C441.48 747.874 457.906 736.68 475.1 727.58C459.956 717.79 440.776 707.3 424.752 698.84C416.18 702.084 390.216 716.57 382.844 714.868C377.564 713.65 374.136 706.522 375.858 701.55C378.446 694.084 396.394 689.034 403.468 685.608C394.978 680.182 358.804 660.314 356.324 653.61C353.578 646.184 360.958 637.042 368.756 640.054C380.066 644.422 399.748 659.49 412.626 666.224C412.186 658.142 408.076 642.748 414.042 636.306C417.794 632.252 425.142 632.79 428.858 636.604C433.67 641.544 434.984 672.448 435.148 680.576C452.64 690.522 469.642 701.428 487.314 711.026C488.156 690.878 487.328 669.66 487.314 649.4C478.13 642.864 461.266 633.868 454.002 626.64C448.836 621.5 451.72 610.98 458.872 609.342C466.448 607.606 480.704 619.896 487.314 624.036Z"/>
	<path d="M262.466 633.098C261.994 621.262 257.426 605.45 272.108 601.572C287.264 600.856 283.078 623.804 283.016 633.098C293.264 627.282 306.534 613.876 315.432 628.896C316.068 642.842 304.534 644.822 294.144 651.056C300.256 654.334 312.886 659.386 314.828 666.35C316.382 671.92 313.092 678.512 307.28 679.828C300.198 681.432 289.042 672.512 283.016 668.772C282.82 680.51 287.756 694.826 273.302 698.84C258.084 695.15 262.406 681.396 262.466 668.772C256.67 672.074 246.31 681.376 239.488 680.618C233.646 679.968 228.724 673.548 230 667.716C231.542 660.66 245.236 654.71 251.252 651.056C245.452 647.676 232.036 642.156 230.128 635.674C228.564 630.364 231.868 623.39 237.366 621.89C243.946 620.092 256.576 629.602 262.466 633.098Z"/>
	<path d="M717.478 624.036C720.004 621.25 722.098 619.904 725.636 618.604C742.798 617.144 738.956 638.214 738.888 649.4C747.094 645.298 753.878 639.59 762.864 637.052C790.902 647.544 757.092 662.644 749.856 668.212L749.134 668.772C755.876 672.2 768.898 675.75 771.508 683.414C773.478 689.2 769.724 695.698 763.786 697.014C756.168 698.704 745 689.502 738.888 685.608C738.81 694.986 741.838 706.752 734.012 713.734C714.8 723.562 717.376 696.098 717.478 685.608C711.102 688.734 701.928 696.83 694.896 696.5C689.28 696.238 683.75 691.212 684.372 685.324C685.3 676.52 699.396 671.788 705.69 666.832L706.456 666.224C699.614 663.488 686.614 658.088 684.738 650.412C683.428 645.052 688.488 639.02 693.646 638.13C700.832 636.89 711.688 645.484 717.478 649.4C717.37 641.162 716.338 632.188 717.478 624.036Z"/>
</svg>
