<?xml version="1.0" encoding="utf-8" ?>
<svg xmlns="http://www.w3.org/2000/svg" xmlns:xlink="http://www.w3.org/1999/xlink" width="1024" height="1024">
	<path transform="scale(2 2)" d="M199.047 178.239C214.137 156.131 234.903 144.337 260.964 141.228C292.167 140.507 323.739 152.829 339.409 181.5C374.842 176.61 409.907 202.414 415.217 237.845C416.03 243.27 416.079 248.79 416.077 254.265C455.833 270.513 468.756 322.152 437.78 353.132C419.957 370.957 404.292 370.775 381.1 370.769L241.125 370.763L188.242 370.773C157.812 370.778 140.6 372.119 119.85 343.839C103.462 348.027 87.1769 344.972 74.1316 333.625C41.0596 304.86 59.6238 250.764 104.573 248.018C94.9831 201.273 136.971 160.034 183.096 172.27C188.598 173.73 193.822 176.017 199.047 178.239ZM265.922 152C244.514 152.564 223.083 163.567 210.569 181.068C199.387 196.705 205.059 192.681 187.75 185.294C147.976 168.32 103.281 206.624 115.65 247.378C119.539 260.189 117.596 258.867 105.6 258.989C86.3262 259.186 69.8566 275.015 68.418 294.204C66.6054 318.382 89.3143 339.078 113.067 334.166C130.635 330.533 123.028 329.968 132.539 342.206C146.355 359.983 161.83 360.002 181.59 359.983L387.067 359.978C392.343 359.975 397.817 360.144 403.052 359.413C458.865 351.62 457.139 264.727 395.658 260.566C389.668 260.161 378.616 263.767 376.329 260.987C371.584 255.218 376.973 238.402 356.874 228.021C348.065 223.512 338.246 223.254 329.459 227.766C316.56 234.391 319.268 232.064 314.328 219.844C296.154 174.885 229.034 181.348 219.794 227.301C218.58 233.335 220.625 240.221 213.234 241.826C210.02 241.013 207.249 238.739 204.24 237.367C184.974 228.579 161.812 240.217 160.375 262.049C160.144 265.549 160.936 270.797 157.39 272.854C154.79 274.362 151.026 273.155 149.779 270.41C147.605 265.626 150.437 252.967 152.357 248.285C161.184 226.766 187.471 217.44 208.425 226.809C213.2 209.259 221.247 195.571 237.381 186.344C266.234 169.843 304.645 179.087 321.089 208.536C322.62 211.279 323.838 214.242 325.533 216.883C352.05 205.179 380.73 223.258 384.922 250.776C391.592 249.302 398.104 249.815 404.805 250.776C404.766 218.826 381.597 191.689 348.938 191.682C336.848 191.679 336.213 197.126 329.318 186.224C316.951 166.669 289.65 149.275 265.922 152Z"/>
	<path transform="scale(2 2)" d="M82.1065 307.404C69.3153 303.98 76.9595 270.012 104.573 267.348C108.651 266.991 114.204 267.907 113.757 273.171C113.212 279.597 106.976 277.78 102.683 278.658C82.3835 282.811 90.3851 302.004 85.5703 306.14C84.4305 306.745 83.3426 307.078 82.1065 307.404Z"/>
	<path transform="scale(2 2)" d="M321.811 300.739C319.452 301.801 316.191 302.145 313.663 302.838C294.952 307.969 284.611 326.651 280.528 327.121C277.778 327.437 274.464 325.188 274.297 322.309C274.055 318.118 279.257 312.765 281.882 309.937C293.164 297.784 308.879 290.339 325.533 289.743C342.31 286.569 364.11 297.399 376.162 308.488C382.251 314.091 379.845 320.78 373.6 319.766C371.035 319.35 368.279 316.015 366.252 314.377C351.733 302.644 339.474 300.309 321.811 300.739Z"/>
	<path transform="scale(2 2)" d="M300.447 334.672C295.316 339.043 286.609 334.415 294.896 324.374C302.958 314.606 313.095 310.076 325.533 308.85C331.673 308.093 340.446 310.885 334.858 317.578C331.171 321.994 316.106 315.345 300.447 334.672Z"/>
</svg>
